<svg width="66" height="66" viewBox="0 0 66 66" fill="none" xmlns="http://www.w3.org/2000/svg" xmlns:xlink="http://www.w3.org/1999/xlink">
<path d="M32.475,5.848C41.152,5.848 42.18,5.886 45.592,6.038C48.764,6.178 50.476,6.711 51.618,7.155C53.127,7.738 54.218,8.449 55.347,9.578C56.489,10.719 57.187,11.798 57.77,13.307C58.214,14.449 58.747,16.174 58.887,19.333C59.039,22.758 59.077,23.786 59.077,32.45C59.077,41.127 59.039,42.154 58.887,45.567C58.747,48.738 58.214,50.451 57.77,51.593C57.187,53.102 56.476,54.193 55.347,55.322C54.206,56.464 53.127,57.162 51.618,57.745C50.476,58.189 48.751,58.722 45.592,58.861C42.167,59.014 41.14,59.052 32.475,59.052C23.798,59.052 22.771,59.014 19.358,58.861C16.187,58.722 14.474,58.189 13.333,57.745C11.823,57.162 10.732,56.451 9.603,55.322C8.461,54.18 7.764,53.102 7.18,51.593C6.736,50.451 6.203,48.726 6.064,45.567C5.911,42.142 5.873,41.114 5.873,32.45C5.873,23.773 5.911,22.745 6.064,19.333C6.203,16.162 6.736,14.449 7.18,13.307C7.764,11.798 8.474,10.707 9.603,9.578C10.745,8.436 11.823,7.738 13.333,7.155C14.474,6.711 16.2,6.178 19.358,6.038C22.771,5.886 23.798,5.848 32.475,5.848ZM32.475,0C23.659,0 22.555,0.038 19.092,0.19C15.641,0.343 13.269,0.901 11.214,1.7C9.07,2.537 7.256,3.641 5.455,5.455C3.641,7.256 2.537,9.07 1.7,11.201C0.901,13.269 0.343,15.629 0.19,19.079C0.038,22.555 0,23.659 0,32.475C0,41.292 0.038,42.395 0.19,45.859C0.343,49.309 0.901,51.681 1.7,53.736C2.537,55.88 3.641,57.694 5.455,59.496C7.256,61.297 9.07,62.413 11.201,63.238C13.269,64.037 15.629,64.595 19.079,64.748C22.542,64.9 23.646,64.938 32.463,64.938C41.279,64.938 42.383,64.9 45.846,64.748C49.296,64.595 51.669,64.037 53.724,63.238C55.855,62.413 57.669,61.297 59.47,59.496C61.272,57.694 62.388,55.88 63.213,53.749C64.012,51.681 64.57,49.322 64.722,45.871C64.874,42.408 64.912,41.304 64.912,32.488C64.912,23.671 64.874,22.568 64.722,19.105C64.57,15.654 64.012,13.282 63.213,11.227C62.413,9.07 61.31,7.256 59.496,5.455C57.694,3.653 55.88,2.537 53.749,1.713C51.681,0.913 49.322,0.355 45.871,0.203C42.395,0.038 41.292,0 32.475,0Z" fill="#FBFBFB"/>
<path d="M32.475,15.794C23.265,15.794 15.794,23.265 15.794,32.475C15.794,41.685 23.265,49.157 32.475,49.157C41.685,49.157 49.157,41.685 49.157,32.475C49.157,23.265 41.685,15.794 32.475,15.794ZM32.475,43.296C26.5,43.296 21.654,38.45 21.654,32.475C21.654,26.5 26.5,21.654 32.475,21.654C38.45,21.654 43.296,26.5 43.296,32.475C43.296,38.45 38.45,43.296 32.475,43.296Z" fill="#FBFBFB"/>
<path d="M53.711,15.134C53.711,17.29 51.96,19.028 49.816,19.028C47.66,19.028 45.922,17.278 45.922,15.134C45.922,12.977 47.673,11.239 49.816,11.239C51.96,11.239 53.711,12.99 53.711,15.134Z" fill="#FBFBFB"/>
</svg>
