<svg width="66" height="66" viewBox="0 0 66 66" fill="none" xmlns="http://www.w3.org/2000/svg" xmlns:xlink="http://www.w3.org/1999/xlink">
<path d="M64.95,32.475C64.95,14.54 50.411,0 32.475,0C14.54,0 0,14.54 0,32.475C0,48.684 11.876,62.12 27.401,64.556L27.401,41.863L19.155,41.863L19.155,32.475L27.401,32.475L27.401,25.321C27.401,17.181 32.249,12.686 39.667,12.686C43.219,12.686 46.937,13.32 46.937,13.32L46.937,21.312L42.842,21.312C38.808,21.312 37.55,23.815 37.55,26.386L37.55,32.475L46.556,32.475L45.116,41.863L37.55,41.863L37.55,64.556C53.075,62.12 64.95,48.684 64.95,32.475Z" fill="#FBFBFB"/>
</svg>
