<svg width="64" height="66" viewBox="0 0 64 66" fill="none" xmlns="http://www.w3.org/2000/svg" xmlns:xlink="http://www.w3.org/1999/xlink">
<path d="M59.192,0L3.845,0C1.193,0 -0.951,2.093 -0.951,4.681L-0.951,60.257C-0.951,62.844 1.193,64.95 3.845,64.95L59.192,64.95C61.843,64.95 64,62.844 64,60.269L64,4.681C64,2.093 61.843,0 59.192,0ZM18.319,55.347L8.678,55.347L8.678,24.344L18.319,24.344L18.319,55.347ZM13.498,20.119C10.403,20.119 7.904,17.62 7.904,14.537C7.904,11.455 10.403,8.956 13.498,8.956C16.581,8.956 19.08,11.455 19.08,14.537C19.08,17.607 16.581,20.119 13.498,20.119ZM54.397,55.347L44.768,55.347L44.768,40.277C44.768,36.687 44.705,32.056 39.758,32.056C34.747,32.056 33.986,35.976 33.986,40.023L33.986,55.347L24.37,55.347L24.37,24.344L33.605,24.344L33.605,28.581L33.732,28.581C35.013,26.145 38.159,23.57 42.84,23.57C52.596,23.57 54.397,29.989 54.397,38.336L54.397,55.347L54.397,55.347Z" fill="#FBFBFB"/>
</svg>
